# xmcd
#
# Track frame offsets:
#	150
#	22606
#	47299
#	66017
#	90353
#	114119
#	134318
#	153446
#	179263
#	213264
#
# Disc length: 3150 seconds
#
# Revision: 0
# Processed by: cddbd v1.5.2PL0 Copyright (c) Steve Scherf et al.
# Submitted via: EasyCDDAExtractor 15.3.0.1
#
DISCID=6a0c4c0a
DTITLE=Phuong Thanh - RDCD - Cho Em Loi Cuoi
DYEAR=1999
DGENRE=
TTITLE0=Phuong Thanh - Cho Em Loi Cuoi
TTITLE1=Phuong Thanh - Mua Mot Minh
TTITLE2=Phuong Thanh - Ngay Mai Con Nho
TTITLE3=Phuong Thanh - Mua Dong Mong Manh
TTITLE4=Phuong Thanh and Truong Huy - Tinh Xa Khuat
TTITLE5=Phuong Thanh - Ben Em Chieu Mua
TTITLE6=Truong Huy - Mua Tinh Yeu
TTITLE7=Phuong Thanh - Da Khuc Buon
TTITLE8=Phuong Thanh - Bong Bien
TTITLE9=Thanh Thao - Ta Chang Con Ai
EXTD=
EXTT0=
EXTT1=
EXTT2=
EXTT3=
EXTT4=
EXTT5=
EXTT6=
EXTT7=
EXTT8=
EXTT9=
PLAYORDER=
